PathFileType	4	(X/Y/Z)	Patient4_TMGait_0pt6_02_right_38.trc.trc
DataRate	CameraRate	NumFrames	NumMarkers	Units	OrigDataRate	OrigDataStartFrame	OrigNumFrames
79.096045197740	79.096045197740	6	33	mm	79.096045197740	1	       141
Frame#	Time	Sacral			L.Shoulder			Chest			R.Shoulder			Neck			R.ASIS			L.ASIS			R.Thigh.Superior			R.Thigh.Lateral			R.Thigh.Inferior			R.Patella			L.Thigh.Superior			L.Thigh.Lateral			L.Thigh.Inferior			L.Patella			L.Shank.Superior			L.Shank.Lateral			L.Shank.Inferior			R.Shank.Superior			R.Shank.Lateral			R.Shank.Inferior			R.Heel			R.Midfoot.Superior			R.Midfoot.Lateral			R.Toe			L.Heel			L.Midfoot.Lateral			L.Midfoot.Superior			L.Toe			L.Elbow			L.Wrist			R.Elbow			R.Wrist			
		X1	Y1	Z1	X2	Y2	Z2	X3	Y3	Z3	X4	Y4	Z4	X5	Y5	Z5	X6	Y6	Z6	X7	Y7	Z7	X8	Y8	Z8	X9	Y9	Z9	X10	Y10	Z10	X11	Y11	Z11	X12	Y12	Z12	X13	Y13	Z13	X14	Y14	Z14	X15	Y15	Z15	X16	Y16	Z16	X17	Y17	Z17	X18	Y18	Z18	X19	Y19	Z19	X20	Y20	Z20	X21	Y21	Z21	X22	Y22	Z22	X23	Y23	Z23	X24	Y24	Z24	X25	Y25	Z25	X26	Y26	Z26	X27	Y27	Z27	X28	Y28	Z28	X29	Y29	Z29	X30	Y30	Z30	X31	Y31	Z31	X32	Y32	Z32	X33	Y33	Z33	

1	45.760000000000	851.693919630413	1018.757398210366	435.038462940347	1065.346416712790	1432.608997517400	249.258624961211	1159.391538988804	1353.836220134609	411.450495328868	1081.128108237836	1439.996038364760	580.399915523458	1073.318270826268	1494.693842603116	397.972038767484	1073.316975078713	945.768193799794	554.367695631537	1066.207508196419	962.914325510894	280.754652566393	1162.421000357977	784.391596763364	517.794666317651	1131.163311784478	662.822113739060	589.532882701196	1222.242805207197	629.232304448330	507.578819917572	1242.934494476461	509.866813763877	526.444401697559	1114.467210643054	755.249184674109	312.004469706620	1027.236676926745	640.853676020285	252.492620440659	1106.275494565964	562.367735047980	321.444570917769	1105.021055723457	492.832460407031	332.235238077547	1080.804543317413	422.482258012768	321.460147828522	996.842293513816	306.609173558868	265.168694520885	1044.266927314590	196.234200713426	340.233237172631	1155.469395563607	442.183052655169	534.505768303312	1027.519370048394	426.064873493665	593.521285496590	994.078803570406	321.882917550810	546.191613511620	784.492248365982	297.015714904889	514.892594829512	939.810207384107	210.380945966693	561.298644272322	831.468322814996	232.293897577924	592.494002227006	981.545648555777	89.222180668143	595.834519135519	914.173993014529	39.601400473880	374.781944733871	993.332645224874	36.068989814630	299.373777919751	1074.850977104690	96.982704196589	331.177871012114	1205.043231232689	42.015831763010	312.289520631804	981.567679764037	1092.367131388777	124.294182586567	1143.735169504987	888.273791531619	104.191388165128	1029.720697793273	1103.519057626114	723.642904747779	1100.868547442624	850.826004524588	702.105948467278	
2	45.772642857143	850.631088216856	1018.927214231001	434.357169780336	1066.695286229537	1433.200014759010	250.375090461471	1159.371815928120	1353.891358133213	413.097891576135	1079.938578093783	1439.788280156205	581.680140633768	1073.654577207435	1494.877340227390	399.315484448617	1072.203225187312	946.731210040817	554.839443088164	1065.649750086412	963.040095558702	281.067342100777	1163.763013666735	788.713506383524	517.870191167877	1135.234614170165	666.867003336001	589.768175073602	1226.445929282415	634.911902718257	507.353733463664	1250.164570294760	516.538443088438	526.386538629774	1112.155780792805	754.333987044101	312.399299070430	1023.976805850902	640.664241721270	252.463960199496	1101.961606044401	561.474310906853	321.658782981486	1100.039687687904	491.989800856714	332.372163765440	1075.395807858955	421.814004738966	321.618641149792	990.701526894126	306.592279578302	265.247486610882	1037.094243870657	195.908031518808	340.350366384064	1165.363740427428	446.314688593655	535.420735304067	1038.998972536539	425.399880696647	595.681183679177	1009.271070897751	319.750810284061	548.885231751895	801.178095800728	286.547286201268	519.738952533642	959.959165409275	206.565505935194	565.272317139325	851.189715312545	223.961484321428	597.025661323628	1006.541866497839	87.037969395884	599.134840660710	906.063874854746	39.618930222063	374.794556078031	985.259003131474	36.081158964911	299.369462450385	1066.835251998763	96.956377769239	331.177254457002	1197.000168393437	41.887722060340	312.230341146853	983.693308512990	1093.509905957990	123.697244205265	1151.687250260565	894.892674300217	105.500277967201	1021.038007465742	1105.515784043867	725.725127272509	1082.785789165443	850.870436520010	711.458149385461	
3	45.785285714286	849.576897458821	1019.091168641839	433.716020162844	1068.006655126260	1433.766681573309	251.511915160681	1159.342115448112	1353.923388004292	414.745710044063	1078.767997031460	1439.554218586729	582.975998296603	1073.976235245216	1495.040554257232	400.674490482481	1071.088720270462	947.655622529594	555.309938898799	1065.073104012951	963.123496188810	281.406614442760	1165.010483794855	792.907377742546	517.966789034914	1139.137318312474	670.803556388394	590.055097436341	1230.448247017936	640.406197365759	507.185023960625	1257.124197013969	523.065435217257	526.420484885184	1109.884509142913	753.424895911102	312.799694049956	1020.763354152991	640.465757871519	252.460415282540	1097.724787329862	560.578092373067	321.878632259925	1095.142885466215	491.145992012649	332.524949881757	1070.065759627105	421.137918718615	321.794015869345	984.639149085251	306.570533955882	265.337185670778	1029.993898001311	195.575434942654	340.476042090716	1175.043204048295	450.301471490484	536.433402409318	1050.298574468032	424.502811085409	597.903393409474	1024.426964469480	317.395278911483	551.664686674792	817.917342681877	275.683758198992	524.611898454408	980.145570109465	202.520357177693	569.317848657213	870.960955357269	215.352616576080	601.639644639222	1031.654795209731	84.751448470907	602.631204154937	898.030576356890	39.635200170051	374.803247730131	977.258008361559	36.091253923345	299.365839889249	1058.892339780985	96.926894233672	331.180182514072	1189.029880234661	41.761007426740	312.172226336861	985.797819270418	1094.614083948876	123.154897620173	1159.531174318302	901.452463082494	106.895270716037	1012.533419992006	1107.467696759418	727.768309567197	1064.992291016954	850.988340132806	720.555599687966	
4	45.797928571429	848.546165213480	1019.241052398036	433.160573283179	1069.245057503622	1434.282466599943	252.697165874388	1159.296676312566	1353.908058252196	416.401484350654	1077.642321094259	1439.268706298288	584.310513798488	1074.273390648911	1495.161287542751	402.072067569100	1069.975373162177	948.494795726766	555.793043378729	1064.504705374324	963.157894322762	281.787140901933	1166.046213543464	796.788938711197	518.133019947242	1142.635424624520	674.471579801265	590.475657803250	1233.987940671029	645.462845525670	507.170949357713	1263.476324774112	529.254410340854	526.667186720501	1107.670972513480	752.519117525491	313.228956697190	1017.614164324701	640.253436908468	252.506881105456	1093.592923523451	559.674735610221	322.115793082467	1090.359823147737	490.301957438900	332.709589692348	1064.843970167603	420.451581854366	322.001260567795	978.688538482809	306.540468488754	265.448471450371	1022.998379537054	195.233285082138	340.618882838918	1184.248701862687	453.982414398026	537.651484988257	1061.276277857104	423.119858977216	600.275227699114	1039.557253157047	314.626235325221	554.604458530980	834.931752752423	264.054038434236	529.529705154648	1000.511634246905	198.093439992775	573.471530158945	890.999304957904	206.225239023548	606.378887092894	1057.098798132458	82.392921815101	606.420067903485	890.114082127269	39.650717059394	374.806810818157	969.367112784287	36.100012605702	299.363632382619	1051.059914710885	96.893752140227	331.189999607127	1181.168657346633	41.637367549874	312.117128230468	987.865225583604	1095.637666398497	122.732979836361	1167.174282238322	907.915905006283	108.482658056284	1004.370856992765	1109.334994273530	729.742068981584	1047.795479250061	851.240546236806	729.140453990733	
5	45.810571428571	847.552326713448	1019.371572586350	432.729144673372	1070.382498775934	1434.725606468147	253.957923362384	1159.232424439200	1353.825984717018	418.074679892373	1076.585021807574	1438.911139890749	585.706794177781	1074.540936896759	1495.220710828696	403.531986117242	1068.862502227650	949.207184486983	556.306243044268	1063.987351828790	963.152589706927	282.218410147584	1166.765670478897	800.190140281518	518.416164678288	1145.513909730083	677.722469403266	591.107201188438	1236.831796303899	649.852062090583	507.408758630605	1268.926384395588	534.935272637485	527.242715834679	1105.516022471036	751.608177951954	313.713328374117	1014.528564047500	640.024351684804	252.624420494103	1089.563341392195	558.757376581863	322.383183592790	1085.685054339153	489.456798717691	332.941017106524	1059.727548183331	419.752551450079	322.253018844228	972.850495776262	306.499343675619	265.590440569532	1016.109387699640	194.879665633820	340.786382411813	1192.763259995894	457.223017518692	539.172534066424	1071.847652575371	421.029481971079	602.881600891536	1054.714237894711	311.297198947364	557.765365429811	852.504300286930	251.348600418787	534.507640799689	1021.248626772496	193.189959605069	577.756164367623	911.582097906565	196.385324704915	611.267611614382	1083.126789202111	80.045595023368	610.550848341389	882.322247026126	39.667389787353	374.803774508486	961.591768541274	36.108425825805	299.363502716988	1043.343447852180	96.856420457488	331.209790637150	1173.420686519197	41.517947590324	312.066986973690	989.888813151737	1096.545734329085	122.489253722335	1174.558817397454	914.269797907904	110.359558481317	996.665947786912	1111.087181315550	731.628009637764	1031.433574090524	851.668583963048	737.013612254574	
6	45.823214285714	846.608855328606	1019.479481999891	432.450340810625	1071.399606295772	1435.080255329583	255.315934281428	1159.149736393068	1353.664705225982	419.773644618433	1075.616847015124	1438.468496975589	587.183808738029	1074.778632091180	1495.204987777742	405.074207675032	1067.750151429042	949.758770954910	556.869704749815	1063.578581346521	963.134375264794	282.701805203602	1167.085967429273	802.966209646897	518.860107342443	1147.591285466204	680.424925652065	592.015340125665	1238.790543906557	653.378552206227	507.986772974827	1273.238619087175	539.965125892309	528.245728828278	1103.405717376569	750.679705394553	314.279808914212	1011.490902893373	639.778111088191	252.827933441303	1085.606634963513	557.819102856252	322.693666033375	1081.083243290298	488.609247657062	333.231303951270	1054.687170348744	419.040376309956	322.557555143967	967.100332304116	306.445589441261	265.769406481376	1009.307295488067	194.514922036560	340.983777149341	1200.415216700337	459.921663190027	541.069575849236	1081.975693088515	418.069817328541	605.791685580516	1069.957535527267	307.330994251557	561.179902871179	870.921736219623	237.382378868321	539.544876918910	1042.539635118420	187.798750536695	582.167296154910	932.984347900661	185.730530713043	616.294563395301	1109.954246588848	77.848366060610	615.002318097849	874.641731268974	39.688293786856	374.792692185952	953.916580649364	36.117813549859	299.365976449639	1035.727182593163	96.814622902664	331.241983749004	1165.769162360115	41.403561387882	312.023692546331	991.868008273205	1097.312303155512	122.468680580452	1181.654971348246	920.516468865743	112.601443863315	989.487772845539	1112.703623000119	733.419273368635	1016.082465766636	852.288294047536	744.040635986489	
